<svg xmlns="http://www.w3.org/2000/svg" width="23.368" height="23.368" viewBox="0 0 23.368 23.368">
  <g id="arrow-icon-active" transform="translate(0 0)">
    <path id="パス_4104" data-name="パス 4104" d="M14.734,10.3a1.088,1.088,0,0,1,1.534,0l5.359,5.376a1.083,1.083,0,0,1,.034,1.494l-5.28,5.3a1.082,1.082,0,1,1-1.534-1.528l4.488-4.556-4.6-4.556A1.071,1.071,0,0,1,14.734,10.3Z" transform="translate(-5.595 -4.704)" fill="#fff400"/>
    <path id="パス_4105" data-name="パス 4105" d="M3.375,15.059A11.684,11.684,0,1,0,15.059,3.375,11.682,11.682,0,0,0,3.375,15.059Zm1.8,0A9.883,9.883,0,0,1,22.047,8.071,9.883,9.883,0,1,1,8.071,22.047,9.8,9.8,0,0,1,5.173,15.059Z" transform="translate(-3.375 -3.375)" fill="#fff400"/>
  </g>
</svg>
